<?xml version="1.0" encoding="UTF-8" standalone="no"?>
<!-- Created with Inkscape (http://www.inkscape.org/) -->

<svg
   xmlns:dc="http://purl.org/dc/elements/1.1/"
   xmlns:cc="http://creativecommons.org/ns#"
   xmlns:rdf="http://www.w3.org/1999/02/22-rdf-syntax-ns#"
   xmlns:svg="http://www.w3.org/2000/svg"
   xmlns="http://www.w3.org/2000/svg"
   xmlns:sodipodi="http://sodipodi.sourceforge.net/DTD/sodipodi-0.dtd"
   xmlns:inkscape="http://www.inkscape.org/namespaces/inkscape"
   width="148mm"
   height="210mm"
   viewBox="0 0 148 210"
   version="1.1"
   id="SVGRoot"
   inkscape:version="0.92.3 (2405546, 2018-03-11)"
   sodipodi:docname="FlorainF_FA5_TV.svg"
   inkscape:export-filename="D:\wamp\www\monnaielocalenancy.fr\com\resources\FlorainF_FA5_TV.png"
   inkscape:export-xdpi="96"
   inkscape:export-ydpi="96">
  <sodipodi:namedview
     id="base"
     pagecolor="#ffffff"
     bordercolor="#666666"
     borderopacity="1.0"
     inkscape:pageopacity="0.0"
     inkscape:pageshadow="2"
     inkscape:zoom="0.5"
     inkscape:cx="508.61914"
     inkscape:cy="503.81928"
     inkscape:document-units="mm"
     inkscape:current-layer="layer1"
     showgrid="false"
     inkscape:window-width="1920"
     inkscape:window-height="1153"
     inkscape:window-x="1916"
     inkscape:window-y="-4"
     inkscape:window-maximized="1" />
  <defs
     id="defs4496">
    <clipPath
       id="clipPath6230"
       clipPathUnits="userSpaceOnUse">
      <g
         transform="matrix(1.9023344,0,0,1.9023344,-80.159566,-194.22634)"
         id="use6232"
         inkscape:label="Clip">
        <path
           style="fill:#70706f;fill-opacity:1;stroke:none;stroke-width:0.1;stroke-linecap:butt;stroke-linejoin:miter;stroke-miterlimit:4;stroke-dasharray:none;stroke-opacity:1"
           d="m 89.499288,200.70551 c -0.325371,-0.0323 -1.390793,0.11519 0.143872,0.47016 5.339446,1.23502 16.91398,-4.21213 12.03734,-9.44281 -1.860538,-1.99561 -6.320735,-1.97688 -7.609707,1.07899 -0.934398,2.21525 2.337844,8.29214 3.0666,9.99485 1.479634,3.45711 3.388447,11.64292 -1.732061,11.41456 -6.594494,-1.52514 2.169528,-10.23631 9.755868,-11.86315 0.87922,-0.18855 0.24565,-0.49332 -0.15855,-0.37485 -13.886093,3.35987 -13.743103,8.518 -13.799696,9.51214 -0.134864,2.36909 1.115767,2.90171 2.953023,3.40733 7.406623,2.03831 9.538973,-5.25614 4.5999,-13.2886 -3.552965,-5.77821 -3.835,-10.5679 -0.340734,-10.27879 6.233637,0.51576 1.415572,10.39631 -8.915855,9.37017 z"
           id="path829"
           inkscape:connector-curvature="0"
           sodipodi:nodetypes="ssssscscsssss" />
        <path
           style="fill:#70706f;fill-opacity:1;stroke:none;stroke-width:0.1;stroke-linecap:butt;stroke-linejoin:miter;stroke-miterlimit:4;stroke-dasharray:none;stroke-opacity:1"
           d="m 91.117771,186.56508 c 0.586686,-0.24436 1.669982,-0.5668 2.157978,-0.5679 1.375822,0.12488 3.21961,3.10798 0.539494,3.32216 0.529084,-1.15613 -1.59259,-1.87046 -2.697472,-2.75426 z"
           id="path831"
           inkscape:connector-curvature="0"
           sodipodi:nodetypes="cccc" />
        <path
           style="fill:#70706f;fill-opacity:1;stroke:none;stroke-width:0.1;stroke-linecap:butt;stroke-linejoin:miter;stroke-miterlimit:4;stroke-dasharray:none;stroke-opacity:1"
           d="m 96.638955,184.33277 c 0.635469,0.01 1.927922,0.0601 2.375977,0.25343 1.535548,1.17264 1.137578,4.48514 -1.793777,3.88682 1.31492,-1.07688 0.07924,-2.88951 -0.5822,-4.14025 z"
           id="path833"
           inkscape:connector-curvature="0"
           sodipodi:nodetypes="cccc" />
        <path
           style="fill:#70706f;fill-opacity:1;stroke:none;stroke-width:0.1;stroke-linecap:butt;stroke-linejoin:miter;stroke-miterlimit:4;stroke-dasharray:none;stroke-opacity:1"
           d="m 102.33534,185.24076 c 0.49516,0.3984 1.86426,0.82649 2.09858,1.25455 0.88898,1.35322 -0.67889,3.85955 -2.97206,2.26121 1.26838,-0.0882 1.10834,-1.35612 0.87348,-3.51576 z"
           id="path835"
           inkscape:connector-curvature="0"
           sodipodi:nodetypes="cccc" />
      </g>
    </clipPath>
  </defs>
  <metadata
     id="metadata4499">
    <rdf:RDF>
      <cc:Work
         rdf:about="">
        <dc:format>image/svg+xml</dc:format>
        <dc:type
           rdf:resource="http://purl.org/dc/dcmitype/StillImage" />
        <dc:title></dc:title>
      </cc:Work>
    </rdf:RDF>
  </metadata>
  <g
     id="layer1"
     inkscape:groupmode="layer"
     inkscape:label="Layer 1"
     sodipodi:insensitive="true">
    <path
       sodipodi:nodetypes="ssssscscsssss"
       inkscape:connector-curvature="0"
       id="path6197"
       d="m 30.809163,107.38128 c -1.815634,-0.18024 -7.760896,0.64278 0.802833,2.62358 29.79515,6.89166 94.383314,-23.504504 67.170706,-52.692719 C 88.400536,46.176247 63.511766,46.280764 56.319053,63.333115 51.10493,75.694643 69.364675,109.60488 73.431277,119.10633 c 8.256648,19.29135 18.908198,64.96977 -9.665238,63.69547 -36.798565,-8.51058 12.10639,-57.12061 54.439651,-66.19869 4.90622,-1.05215 1.37077,-2.75282 -0.88474,-2.09173 -77.48711,18.74873 -76.689198,47.5321 -77.004998,53.07959 -0.75257,13.21999 6.226196,16.19211 16.478445,19.01357 C 98.124798,197.9787 110.02373,157.27425 82.462736,112.45156 62.636498,80.208016 61.062686,53.480611 80.561373,55.093901 115.34629,57.971943 88.46054,113.10734 30.809163,107.38128 Z"
       style="fill:#d8da1f;fill-opacity:1;stroke:none;stroke-width:0.55801952;stroke-linecap:butt;stroke-linejoin:miter;stroke-miterlimit:4;stroke-dasharray:none;stroke-opacity:1" />
    <path
       sodipodi:nodetypes="cccc"
       inkscape:connector-curvature="0"
       id="path6199"
       d="m 39.840613,28.474919 c 3.27382,-1.363576 9.318827,-3.162854 12.04194,-3.168992 7.677353,0.696855 17.966052,17.343135 3.010481,18.538301 2.95239,-6.451431 -8.886963,-10.437532 -15.052421,-15.369309 z"
       style="fill:#d8da1f;fill-opacity:1;stroke:none;stroke-width:0.55801952;stroke-linecap:butt;stroke-linejoin:miter;stroke-miterlimit:4;stroke-dasharray:none;stroke-opacity:1" />
    <path
       sodipodi:nodetypes="cccc"
       inkscape:connector-curvature="0"
       id="path6199-0"
       d="m 70.649896,16.018194 c 3.54604,0.0558 10.758181,0.335369 13.258419,1.414189 8.568655,6.54356 6.347904,25.027956 -10.009628,21.689214 7.33751,-6.009201 0.442173,-16.12403 -3.248791,-23.103403 z"
       style="fill:#d8da1f;fill-opacity:1;stroke:none;stroke-width:0.55801952;stroke-linecap:butt;stroke-linejoin:miter;stroke-miterlimit:4;stroke-dasharray:none;stroke-opacity:1" />
    <path
       sodipodi:nodetypes="cccc"
       inkscape:connector-curvature="0"
       id="path6199-9"
       d="m 102.43684,21.084955 c 2.76308,2.22315 10.40293,4.611976 11.71048,7.000634 4.96068,7.551232 -3.78834,21.537043 -16.58467,12.617993 7.07781,-0.492173 6.18475,-7.567414 4.87419,-19.618627 z"
       style="fill:#d8da1f;fill-opacity:1;stroke:none;stroke-width:0.55801952;stroke-linecap:butt;stroke-linejoin:miter;stroke-miterlimit:4;stroke-dasharray:none;stroke-opacity:1" />
  </g>
</svg>
