<?xml version="1.0" encoding="UTF-8" standalone="no"?>
<!-- Created with Inkscape (http://www.inkscape.org/) -->

<svg
   xmlns:dc="http://purl.org/dc/elements/1.1/"
   xmlns:cc="http://creativecommons.org/ns#"
   xmlns:rdf="http://www.w3.org/1999/02/22-rdf-syntax-ns#"
   xmlns:svg="http://www.w3.org/2000/svg"
   xmlns="http://www.w3.org/2000/svg"
   xmlns:xlink="http://www.w3.org/1999/xlink"
   xmlns:sodipodi="http://sodipodi.sourceforge.net/DTD/sodipodi-0.dtd"
   xmlns:inkscape="http://www.inkscape.org/namespaces/inkscape"
   width="148mm"
   height="210mm"
   viewBox="0 0 148 210"
   version="1.1"
   id="SVGRoot"
   inkscape:version="0.92.3 (2405546, 2018-03-11)"
   sodipodi:docname="idee_florain.svg">
  <sodipodi:namedview
     id="base"
     pagecolor="#ffffff"
     bordercolor="#666666"
     borderopacity="1.0"
     inkscape:pageopacity="0.0"
     inkscape:pageshadow="2"
     inkscape:zoom="0.98994949"
     inkscape:cx="305.01773"
     inkscape:cy="341.28898"
     inkscape:document-units="mm"
     inkscape:current-layer="g4600"
     showgrid="false"
     inkscape:window-width="1920"
     inkscape:window-height="1147"
     inkscape:window-x="1912"
     inkscape:window-y="-8"
     inkscape:window-maximized="1" />
  <defs
     id="defs4496">
    <linearGradient
       inkscape:collect="always"
       id="linearGradient6091">
      <stop
         style="stop-color:#ffffff;stop-opacity:1;"
         offset="0"
         id="stop6087" />
      <stop
         style="stop-color:#ffff00;stop-opacity:1"
         offset="1"
         id="stop6089" />
    </linearGradient>
    <clipPath
       id="clipPath6230"
       clipPathUnits="userSpaceOnUse">
      <g
         inkscape:label="Clip"
         id="use6232"
         transform="matrix(1.9023344,0,0,1.9023344,-80.159565,-194.22635)">
        <path
           sodipodi:nodetypes="ssssscscsssss"
           inkscape:connector-curvature="0"
           id="path4549"
           d="m 89.499288,200.70551 c -0.325371,-0.0323 -1.390793,0.11519 0.143872,0.47016 5.339446,1.23502 16.91398,-4.21213 12.03734,-9.44281 -1.860538,-1.99561 -6.320735,-1.97688 -7.609707,1.07899 -0.934398,2.21525 2.337844,8.29214 3.0666,9.99485 1.479634,3.45711 3.388447,11.64292 -1.732061,11.41456 -6.594494,-1.52514 2.169528,-10.23631 9.755868,-11.86315 0.87922,-0.18855 0.24565,-0.49332 -0.15855,-0.37485 -13.886093,3.35987 -13.743103,8.518 -13.799696,9.51214 -0.134864,2.36909 1.115767,2.90171 2.953023,3.40733 7.406623,2.03831 9.538973,-5.25614 4.5999,-13.2886 -3.552965,-5.77821 -3.835,-10.5679 -0.340734,-10.27879 6.233637,0.51576 1.415572,10.39631 -8.915855,9.37017 z"
           style="fill:#ffff00;fill-opacity:1;stroke:none;stroke-width:0.1;stroke-linecap:butt;stroke-linejoin:miter;stroke-miterlimit:4;stroke-dasharray:none;stroke-opacity:1" />
        <path
           sodipodi:nodetypes="cccc"
           inkscape:connector-curvature="0"
           id="path4551"
           d="m 91.117771,186.56508 c 0.586686,-0.24436 1.669982,-0.5668 2.157978,-0.5679 1.375822,0.12488 3.21961,3.10798 0.539494,3.32216 0.529084,-1.15613 -1.59259,-1.87046 -2.697472,-2.75426 z"
           style="fill:#ffff00;fill-opacity:1;stroke:none;stroke-width:0.1;stroke-linecap:butt;stroke-linejoin:miter;stroke-miterlimit:4;stroke-dasharray:none;stroke-opacity:1" />
        <path
           sodipodi:nodetypes="cccc"
           inkscape:connector-curvature="0"
           id="path4553"
           d="m 96.638955,184.33277 c 0.635469,0.01 1.927922,0.0601 2.375977,0.25343 1.535548,1.17264 1.137578,4.48514 -1.793777,3.88682 1.31492,-1.07688 0.07924,-2.88951 -0.5822,-4.14025 z"
           style="fill:#ffff00;fill-opacity:1;stroke:none;stroke-width:0.1;stroke-linecap:butt;stroke-linejoin:miter;stroke-miterlimit:4;stroke-dasharray:none;stroke-opacity:1" />
        <path
           sodipodi:nodetypes="cccc"
           inkscape:connector-curvature="0"
           id="path4555"
           d="m 102.33534,185.24076 c 0.49516,0.3984 1.86426,0.82649 2.09858,1.25455 0.88898,1.35322 -0.67889,3.85955 -2.97206,2.26121 1.26838,-0.0882 1.10834,-1.35612 0.87348,-3.51576 z"
           style="fill:#ffff00;fill-opacity:1;stroke:none;stroke-width:0.1;stroke-linecap:butt;stroke-linejoin:miter;stroke-miterlimit:4;stroke-dasharray:none;stroke-opacity:1" />
      </g>
    </clipPath>
    <radialGradient
       inkscape:collect="always"
       xlink:href="#linearGradient6091"
       id="radialGradient6093"
       cx="77.941376"
       cy="89.261177"
       fx="77.941376"
       fy="89.261177"
       r="56.687603"
       gradientTransform="matrix(15.55841,-0.03684454,0.07932971,11.70575,-1129.2113,-916.52738)"
       gradientUnits="userSpaceOnUse" />
  </defs>
  <metadata
     id="metadata4499">
    <rdf:RDF>
      <cc:Work
         rdf:about="">
        <dc:format>image/svg+xml</dc:format>
        <dc:type
           rdf:resource="http://purl.org/dc/dcmitype/StillImage" />
        <dc:title></dc:title>
      </cc:Work>
    </rdf:RDF>
  </metadata>
  <g
     inkscape:groupmode="layer"
     id="layer3"
     inkscape:label="Fond"
     style="display:inline"
     sodipodi:insensitive="true">
    <ellipse
       style="fill:url(#radialGradient6093);fill-opacity:1;stroke:none;stroke-width:0.87821954;stroke-opacity:1"
       id="path4563"
       cx="89.551239"
       cy="70.860512"
       rx="204.10312"
       ry="168.1595" />
    <rect
       style="opacity:0.922;fill:none;fill-opacity:1;stroke:#ffff00;stroke-width:2.40405083;stroke-linecap:round;stroke-linejoin:round;stroke-miterlimit:4;stroke-dasharray:none;stroke-dashoffset:0;stroke-opacity:1;paint-order:stroke fill markers"
       id="rect4496"
       width="148.13206"
       height="210.07832"
       x="-0.12522665"
       y="-0.081504233" />
    <path
       id="path19"
       d="m 84.057015,163.86142 7.244258,2.55166 C 265.8028,-27.944237 -101.8691,8.3636004 63.78177,161.06863 l 1.902206,-1.68478 C -86.912857,8.9875564 239.22523,-12.650803 84.057015,163.86142 Z"
       inkscape:connector-curvature="0"
       style="opacity:0.48000004;fill:#f2f2f2;stroke:#000000;stroke-width:0.26458332;stroke-opacity:1"
       sodipodi:nodetypes="ccccc" />
    <path
       sodipodi:nodetypes="ssssscscsssss"
       inkscape:connector-curvature="0"
       id="path6197"
       d="m 55.647518,90.823731 c -0.885275,-0.08788 -3.784094,0.313411 0.39145,1.27922 C 70.566626,95.46322 102.05882,80.642513 88.790375,66.410787 83.72819,60.981096 71.592807,61.032056 68.08575,69.346522 c -2.542327,6.027291 6.360847,22.561401 8.343659,27.194168 4.025814,9.40616 9.219346,31.67826 -4.712622,31.05693 -17.942416,-4.14962 5.90289,-27.85113 26.543937,-32.27747 2.392196,-0.513005 0.668367,-1.342229 -0.431382,-1.019893 -37.78153,9.141593 -37.39248,23.175923 -37.546459,25.880793 -0.366941,6.44587 3.035798,7.89503 8.034637,9.27073 20.15207,5.54587 25.953806,-14.301 12.515489,-36.155859 -9.66697,-15.721456 -10.434336,-28.75333 -0.927075,-27.966714 16.960587,1.403289 3.851513,28.286464 -24.258416,25.494524 z"
       style="fill:#ffff00;fill-opacity:1;stroke:none;stroke-width:0.27208176;stroke-linecap:butt;stroke-linejoin:miter;stroke-miterlimit:4;stroke-dasharray:none;stroke-opacity:1" />
    <path
       sodipodi:nodetypes="cccc"
       inkscape:connector-curvature="0"
       id="path6199"
       d="m 48.63325,20.243852 c 2.353461,-0.980237 6.699048,-2.273689 8.656619,-2.278102 5.51904,0.50095 12.915302,12.467504 2.164153,13.326676 2.122394,-4.637757 -6.388594,-7.503255 -10.820772,-11.048574 z"
       style="fill:#ffff00;fill-opacity:1;stroke:none;stroke-width:0.40114492;stroke-linecap:butt;stroke-linejoin:miter;stroke-miterlimit:4;stroke-dasharray:none;stroke-opacity:1" />
    <path
       sodipodi:nodetypes="cccc"
       inkscape:connector-curvature="0"
       id="path6199-0"
       d="m 70.781199,11.289054 c 2.549152,0.04012 7.733761,0.241088 9.531111,1.016622 6.159773,4.703986 4.563336,17.991911 -7.195645,15.59178 5.274734,-4.319849 0.317867,-11.591122 -2.335466,-16.608402 z"
       style="fill:#ffff00;fill-opacity:1;stroke:none;stroke-width:0.40114492;stroke-linecap:butt;stroke-linejoin:miter;stroke-miterlimit:4;stroke-dasharray:none;stroke-opacity:1" />
    <path
       sodipodi:nodetypes="cccc"
       inkscape:connector-curvature="0"
       id="path6199-9"
       d="m 93.631958,14.93141 c 1.986309,1.598161 7.478382,3.315423 8.418342,5.032563 3.5661,5.428374 -2.723328,15.482389 -11.922263,9.070729 5.088042,-0.35381 4.446049,-5.440006 3.503921,-14.103292 z"
       style="fill:#ffff00;fill-opacity:1;stroke:none;stroke-width:0.40114492;stroke-linecap:butt;stroke-linejoin:miter;stroke-miterlimit:4;stroke-dasharray:none;stroke-opacity:1" />
    <path
       style="fill:#000000;stroke:#000000;stroke-width:0.26458332px;stroke-linecap:butt;stroke-linejoin:miter;stroke-opacity:1"
       d="M 102.05357,95.095236 C 98.276012,112.23016 84.893014,145.05109 82.587796,147.25595 l 0.47247,0.28348 c 8.742803,-17.40223 13.554416,-34.36228 19.843754,-52.255206 -1.98438,-1.700892 -0.85045,-0.188988 -0.85045,-0.188988 z"
       id="path4604"
       inkscape:connector-curvature="0"
       sodipodi:nodetypes="ccccc" />
    <path
       style="fill:#000000;stroke:#000000;stroke-width:0.26458332px;stroke-linecap:butt;stroke-linejoin:miter;stroke-opacity:1"
       d="m 52.718203,91.201705 c 3.275962,18.837615 8.936495,36.959855 14.679744,55.057275 l -0.431954,0.48065 C 59.442732,120.80021 51.384215,94.751962 52.718203,91.201705 Z"
       id="path4606"
       inkscape:connector-curvature="0"
       sodipodi:nodetypes="ccccc" />
  </g>
  <g
     inkscape:groupmode="layer"
     id="layer1"
     inkscape:label="culot"
     style="display:inline">
    <path
       style="fill:#e6e6e6;stroke:none;stroke-width:0.26458332px;stroke-linecap:butt;stroke-linejoin:miter;stroke-opacity:1"
       d="m 47.670256,156.57092 c 10.143972,-6.64409 14.937487,-8.17036 21.285282,-11.18333 l 33.531962,11.42996 -4.705489,3.01284 c -4.073798,1.90391 -1.78611,4.21823 -0.596786,6.46169 l -4.684273,3.053 c -1.223686,1.66366 -2.230143,3.48531 0.392221,7.9461 l -4.809903,2.88743 -7.846677,-0.11802 -5.974042,7.44551 c -6.924523,1.69373 -9.408421,-4.71285 -14.017243,-7.24328 l -6.529899,-1.9987 -2.232345,-6.31095 c 1.172787,-1.52641 1.892043,-2.95834 -1.148469,-3.60698 l -0.638046,-5.04832 c 1.501067,-2.07183 0.988373,-3.37652 -1.251833,-4.02311 l -0.77446,-2.70384 v 0"
       id="path4602"
       inkscape:connector-curvature="0"
       sodipodi:nodetypes="cccccccccccccccccc" />
    <g
       id="g4600">
      <path
         inkscape:connector-curvature="0"
         d="m 97.782011,159.83039 c -11.908526,-8.42681 -39.700658,-14.23157 -47.792959,-3.31892 -1.087067,1.45405 -2.026298,2.67876 -1.30707,2.75395 -12.636387,-15.31729 34.091807,-21.66373 53.805518,-2.44787 l -4.705489,3.01287 z"
         id="path4565"
         style="display:inline;fill:#000000;stroke:none;stroke-width:0.26458332;stroke-opacity:1"
         sodipodi:nodetypes="cccccc" />
      <path
         inkscape:connector-curvature="0"
         d="m 92.500952,169.34508 c -12.15156,-9.9336 -43.478664,-6.1992 -42.166357,-0.99889 -3.344973,-2.66552 -1.052957,-4.51371 -0.629967,-5.0128 14.132177,-12.44853 35.345631,-3.08662 47.480597,2.95869 z"
         id="path4567"
         style="display:inline;fill:#000000;stroke:none;stroke-width:0.26458332;stroke-opacity:1"
         sodipodi:nodetypes="ccccc" />
      <path
         inkscape:connector-curvature="0"
         d="m 88.08327,180.17861 c -5.404691,-6.89563 -36.921763,-11.15845 -34.367861,-1.91449 -3.12181,-1.04545 -3.228354,-4.46265 -2.232345,-6.31095 10.202146,-7.10119 33.661005,-3.02029 41.410111,5.33801 l -4.809905,2.88786 z"
         id="path4571"
         style="display:inline;fill:#000000;stroke:none;stroke-width:0.26458332;stroke-opacity:1"
         sodipodi:nodetypes="cccccc" />
      <path
         inkscape:connector-curvature="0"
         d="m 65.242791,177.7165 c -1.392669,3.20716 6.735581,14.49824 9.979594,4.79581 l 5.014209,-2.45172 v 0 c -0.02745,0.17698 -0.05489,0.35395 -0.08233,0.53092 -1.277403,6.27816 -7.65765,10.15943 -12.942088,10.27382 -4.836598,-0.0327 -6.836664,-6.84894 -6.966868,-10.60251 l 4.997487,-2.54635 z"
         id="path4573"
         style="display:inline;fill:#000000;stroke:none;stroke-width:0.26458332;stroke-opacity:1"
         sodipodi:nodetypes="ccccccccc" />
      <path
         inkscape:connector-curvature="0"
         d="m 50.334595,168.34619 c -33.556397,27.76921 -16.778198,13.8846 0,0 z"
         id="path4581"
         style="display:inline;fill:#000000;stroke:none;stroke-width:0.26458332;stroke-opacity:1"
         sodipodi:nodetypes="cc" />
    </g>
  </g>
</svg>
