<?xml version="1.0" encoding="utf-8"?>
<!-- Generator: Adobe Illustrator 16.0.4, SVG Export Plug-In . SVG Version: 6.00 Build 0)  -->
<!DOCTYPE svg PUBLIC "-//W3C//DTD SVG 1.1//EN" "http://www.w3.org/Graphics/SVG/1.1/DTD/svg11.dtd">
<svg version="1.1" id="Calque_1" xmlns="http://www.w3.org/2000/svg" xmlns:xlink="http://www.w3.org/1999/xlink" x="0px" y="0px"
	 width="353.929px" height="358.73px" viewBox="0 0 353.929 358.73" enable-background="new 0 0 353.929 358.73"
	 xml:space="preserve">
<polygon fill="#E5E5D9" points="80.898,313.823 118.951,295.925 217.662,352.132 116.056,358.73 48.062,346.795 "/>
<g>
	<polygon fill="#C1A645" points="149.373,120.638 116.056,310.339 176.796,292.963 177.138,125.365 	"/>
	<path fill="#C1A645" d="M142.821,90.646l33.535,5.568c0,0,5.465-68.502,0.254-57.288C171.401,50.141,52.948,69.539,52.948,69.539
		l40.637,253.727l15.031-4.936L142.821,90.646z"/>
</g>
<polygon fill="#E5E5D9" points="15.444,340.349 1.926,358.73 210.76,358.73 217.662,352.132 "/>
<path fill="#C1A645" d="M109.307,343.755l39.652-245.66c0,0,102.398,20.243,119.774,3.886
	c17.376-16.359-54.62,225.775-65.329,242.031C195.361,356.215,109.307,343.755,109.307,343.755z"/>
<polygon fill="#E5E5D9" points="30.262,263.719 12.782,348.606 86.838,352.132 95.647,258.718 109.454,263.467 114.497,284.072 
	140.571,273.985 134.198,204.817 73.361,206.929 "/>
<polygon fill="#E5E5D9" points="224.149,307.175 220.61,345.862 155.807,324.246 153.84,300.744 "/>
<polygon fill="#E5E5D9" points="247.172,217.565 239.093,260.36 151.251,247.919 148.84,212.864 "/>
<polygon fill="#E5E5D9" points="234.584,263.489 231.285,302.907 153.063,288.191 150.722,257.971 "/>
</svg>
